<?xml version="1.0" encoding="UTF-8"?>
<svg xmlns="http://www.w3.org/2000/svg" viewBox="0 0 24 24">
  <linearGradient id="a" x1="0%" y1="0%" x2="100%" y2="100%"><stop offset="0%" stop-color="#FA233B"/><stop offset="100%" stop-color="#FB5C74"/></linearGradient><path d="M12,0 C18.6274131,0 24,5.37258694 24,12 C24,18.6274131 18.6274131,24 12,24 C5.37258694,24 0,18.6274131 0,12 C0,5.37258694 5.37258694,0 12,0 Z" fill="url(#a)"/><path d="M11.6322341,4.43247532 C11.6322341,4.45943128 11.2098968,6.33943128 9.68989684,8.64466942 C8.16989684,10.9499075 6.29393431,12.9913589 6.26697835,13.0183149 C5.77730903,13.7249075 5.23371532,15.4644913 5.90280287,17.0114007 C6.57189041,18.5583102 7.70738222,18.9806475 9.25429075,18.9806475 C10.8011993,18.9806475 11.4702868,17.7912464 13.0980057,17.7912464 C14.7257246,17.7912464 15.2962587,18.9537014 16.9779219,18.9537014 C18.659585,18.9537014 19.9029219,17.9317923 20.6364587,16.4927271 C21.3699953,15.0536618 21.752271,12.9374542 20.6095127,10.5782923 C19.4667545,8.21913033 17.3774483,6.54143128 16.6169962,6.1460382 C15.8565338,5.75064511 14.2827687,5.53777352 13.4952464,6.63832751 C12.7077241,7.73888149 13.0221175,8.94236942 11.6861538,9.93235561 C10.3501902,10.9223418 10.0088526,8.26139798 10.0088526,8.26139798 C10.0088526,8.26139798 11.6322341,6.13062563 11.6322341,4.43247532 Z" stroke="#FFFFFF" fill="#FFFFFF"/></svg> 