<?xml version="1.0" encoding="UTF-8"?>
<svg xmlns="http://www.w3.org/2000/svg" viewBox="0 0 24 24">
  <path d="M12,0 C18.6274131,0 24,5.37258694 24,12 C24,18.6274131 18.6274131,24 12,24 C5.37258694,24 0,18.6274131 0,12 C0,5.37258694 5.37258694,0 12,0 Z" fill="#009FE3"/><path d="M18.5251054,17.3481818 L18.5251054,15.9703409 L14.7322382,15.9703409 L14.7322382,17.3481818 L18.5251054,17.3481818 Z M18.5251054,14.8784091 L18.5251054,13.5005682 L14.7322382,13.5005682 L14.7322382,14.8784091 L18.5251054,14.8784091 Z M18.5251054,12.4088636 L18.5251054,11.0310227 L14.7322382,11.0310227 L14.7322382,12.4088636 L18.5251054,12.4088636 Z M18.5251054,9.93920454 L18.5251054,8.56136364 L14.7322382,8.56136364 L14.7322382,9.93920454 L18.5251054,9.93920454 Z M18.5251054,7.46968931 L18.5251054,6.09184841 L14.7322382,6.09184841 L14.7322382,7.46968931 L18.5251054,7.46968931 Z M13.5640032,17.3481818 L13.5640032,15.9703409 L9.77113605,15.9703409 L9.77113605,17.3481818 L13.5640032,17.3481818 Z M13.5640032,14.8784091 L13.5640032,13.5005682 L9.77113605,13.5005682 L9.77113605,14.8784091 L13.5640032,14.8784091 Z M13.5640032,12.4088636 L13.5640032,11.0310227 L9.77113605,11.0310227 L9.77113605,12.4088636 L13.5640032,12.4088636 Z M8.60313605,17.3481818 L8.60313605,15.9703409 L4.81026881,15.9703409 L4.81026881,17.3481818 L8.60313605,17.3481818 Z M8.60313605,14.8784091 L8.60313605,13.5005682 L4.81026881,13.5005682 L4.81026881,14.8784091 L8.60313605,14.8784091 Z" fill="#FFFFFF"/></svg> 